<?xml version="1.0" standalone="no"?><!DOCTYPE svg PUBLIC "-//W3C//DTD SVG 1.1//EN" "http://www.w3.org/Graphics/SVG/1.1/DTD/svg11.dtd"><svg t="1603032787941" class="icon" viewBox="0 0 1024 1024" version="1.1" xmlns="http://www.w3.org/2000/svg" p-id="28124" width="16" height="16" xmlns:xlink="http://www.w3.org/1999/xlink"><defs><style type="text/css"></style></defs><path d="M348.672 632.661333a42.538667 42.538667 0 0 0 42.666667 42.666667h256a42.666667 42.666667 0 1 0 0-85.333333H494.336l168.533333-168.533334a42.666667 42.666667 0 1 0-60.373333-60.330666l-168.533333 168.533333V376.661333a42.666667 42.666667 0 1 0-85.333334 0v256zM256 85.333333h512a170.666667 170.666667 0 0 1 170.666667 170.666667v512a170.666667 170.666667 0 0 1-170.666667 170.666667H256a170.666667 170.666667 0 0 1-170.666667-170.666667V256a170.666667 170.666667 0 0 1 170.666667-170.666667z" p-id="28125" fill="#f5f5f7"></path></svg>